/* XPM */
static char * green_xpm[] = {
"64 48 7 1",
" 	c #FFFFFFFFFFFF",
".	c dark slate gray",
"X	c SeaGreen4",
"o	c black",
"O	c gold",
"+	c green",
"@	c lightblue",
"                    .X.X.Xoooooo.X.X.X                          ",
"                    X.X.Xo.o.o.oo.X.X.                          ",
"                    .X.Xo.o.o.o.oo.X.X                          ",
"                    X.Xo.o.o.o.o.oo.X.                          ",
"                    .X.oo.o.o.o.o.oX.X                          ",
"                    X.Xo.o.o.o.o.oo.X.                          ",
"                    .X.Xo.o.o.o.oo.X.X                          ",
"                    X.X.Xo.o.o.oo.X.X.                          ",
"             OO     .X.X.Xoooooo.X.X.X              OO          ",
"             OO     X.X.X.X.X.X.X.X.X.              OO          ",
"             OO     .X.X.Xoooooo.X.X.X              OO          ",
"             OO     X.X.Xo.o.o.oo.X.X.              OO          ",
"         O   OO     .X.Xo.o.o.o.oo.X.X          O   OO          ",
"         OO  OO     X.Xo.o.o.o.o.oo.X.          OO  OO          ",
"         OOO OO     .X.oo.o.o.o.o.oX.X          OOO OO          ",
"         OOOOOO     X.Xo.o.o.o.o.oo.X.          OOOOOO          ",
"         OO OOO     .X.Xo.o.o.o.oo.X.X          OO OOO          ",
"         OO  OO     X.X.Xo.o.o.oo.X.X.          OO  OO          ",
"         OO   O     .X.X.Xoooooo.X.X.X          OO   O          ",
"         OO         X.X.X.X.X.X.X.X.X.          OO              ",
"         OOO        .X.X.Xoooooo.X.X.X          OOO             ",
"       OOOOO        X.X.Xo++++++o.X.X.        OOOOO             ",
"        OO          .X.Xo++++++++o.X.X         OO               ",
"         O          X.Xo++++++++++o.X.          O               ",
"                    .X.o++++++++++oX.X                          ",
"                    X.Xo++++++++++o.X.                          ",
"                    .X.Xo++++++++o.X.X                          ",
"                    X.X.Xo++++++o.X.X.                          ",
"                    .X.X.Xoooooo.X.X.X                          ",
"     @@@        @@@@@@       @@@@@@@@@@         @@@         @@@ ",
"     @@@      @@@@@@@@@      @@@@@@@@@@@@       @@@         @@@ ",
"     @@@     @@@@   @@@@     @@@     @@@@@      @@@@        @@@ ",
"     @@@    @@@      @@@     @@@       @@@      @@@@        @@@ ",
"    @@@    @@@       @@@    @@@         @@@    @@@@@@      @@@  ",
"    @@@    @@@              @@@         @@@    @@@ @@      @@@  ",
"    @@@    @@@@             @@@         @@@    @@@ @@@     @@@  ",
"    @@@     @@@@@                                               ",
"   @@@       @@@@@@@                                            ",
" @@@@@@@@@@@@@@@@@@@@@@@@@@@@@@@@@@@@@@@@@@@@@@@@@@@@@@@@@@@@@@ ",
" @@@@@@@@@@@@@@@@@@@@@@@@@@@@@@@@@@@@@@@@@@@@@@@@@@@@@@@@@@@@@@ ",
"   @@@              @@@                                         ",
"  @@@               @@@                                         ",
"  @@@   @@@         @@@   @@@         @@@@   @@@     @@@ @@@    ",
"  @@@   @@@        @@@@   @@@        @@@@    @@@      @@ @@@    ",
"  @@@   @@@@      @@@@    @@@       @@@@     @@@      @@@@@@    ",
" @@@     @@@@@  @@@@@    @@@      @@@@@     @@@        @@@@     ",
" @@@      @@@@@@@@@@     @@@@@@@@@@@@@      @@@        @@@@     ",
" @@@        @@@@@@       @@@@@@@@@@@        @@@         @@@     "};
