/* XPM */
static char * red_xpm[] = {
"64 48 6 1",
" 	c #FFFFFFFFFFFF",
".	c dark slate gray",
"X	c SeaGreen4",
"o	c black",
"O	c red",
"+	c lightblue",
"                    .X.X.Xoooooo.X.X.X                          ",
"                    X.X.XoOOOOOOo.X.X.                          ",
"                    .X.XoOOOOOOOOo.X.X                          ",
"                    X.XoOOOOOOOOOOo.X.                          ",
"                    .X.oOOOOOOOOOOoX.X                          ",
"                    X.XoOOOOOOOOOOo.X.                          ",
"                    .X.XoOOOOOOOOo.X.X                          ",
"                    X.X.XoOOOOOOo.X.X.                          ",
"                    .X.X.Xoooooo.X.X.X                          ",
"                    X.X.X.X.X.X.X.X.X.                          ",
"                    .X.X.Xoooooo.X.X.X                          ",
"                    X.X.Xo.o.o.oo.X.X.                          ",
"                    .X.Xo.o.o.o.oo.X.X                          ",
"                    X.Xo.o.o.o.o.oo.X.                          ",
"                    .X.oo.o.o.o.o.oX.X                          ",
"                    X.Xo.o.o.o.o.oo.X.                          ",
"                    .X.Xo.o.o.o.oo.X.X                          ",
"                    X.X.Xo.o.o.oo.X.X.                          ",
"                    .X.X.Xoooooo.X.X.X                          ",
"                    X.X.X.X.X.X.X.X.X.                          ",
"                    .X.X.Xoooooo.X.X.X                          ",
"                    X.X.Xo.o.o.oo.X.X.                          ",
"                    .X.Xo.o.o.o.oo.X.X                          ",
"                    X.Xo.o.o.o.o.oo.X.                          ",
"                    .X.oo.o.o.o.o.oX.X                          ",
"                    X.Xo.o.o.o.o.oo.X.                          ",
"                    .X.Xo.o.o.o.oo.X.X                          ",
"                    X.X.Xo.o.o.oo.X.X.                          ",
"                    .X.X.Xoooooo.X.X.X                          ",
"     +++        ++++++       ++++++++++         +++         +++ ",
"     +++      +++++++++      ++++++++++++       +++         +++ ",
"     +++     ++++   ++++     +++     +++++      ++++        +++ ",
"     +++    +++      +++     +++       +++      ++++        +++ ",
"    +++    +++       +++    +++         +++    ++++++      +++  ",
"    +++    +++              +++         +++    +++ ++      +++  ",
"    +++    ++++             +++         +++    +++ +++     +++  ",
"    +++     +++++                                               ",
"   +++       +++++++                                            ",
" ++++++++++++++++++++++++++++++++++++++++++++++++++++++++++++++ ",
" ++++++++++++++++++++++++++++++++++++++++++++++++++++++++++++++ ",
"   +++              +++                                         ",
"  +++               +++                                         ",
"  +++   +++         +++   +++         ++++   +++     +++ +++    ",
"  +++   +++        ++++   +++        ++++    +++      ++ +++    ",
"  +++   ++++      ++++    +++       ++++     +++      ++++++    ",
" +++     +++++  +++++    +++      +++++     +++        ++++     ",
" +++      ++++++++++     +++++++++++++      +++        ++++     ",
" +++        ++++++       +++++++++++        +++         +++     "};
