/* XPM */
static char * isdn_xpm[] = {
"64 64 4 1",
" 	c gray70",
"a 	c white",
".	c red",
"X	c blue",
"                                                                ",
"                                                                ",
"                                                                ",
"                                                                ",
"                                                                ",
"     a   ...       .....       .........      .........         ",
"     a   ...     ........      ..........     ...........       ",
"     a   ...     .........     ...........    ............      ",
"     a   ...    ..........     ...........    ....    ....      ",
"     a   ...    ...........    ...........    ....     ...      ",
"     a  ....   ............    ...........    ....     ....     ",
"    a   ...    ....   .....    ...    .....   ...      ....     ",
"    a   ...    ...     ....    ...     ....   ...      ....     ",
"    a   ...    ...      ...    ...     ....   ...       ...     ",
"    a   ...   ...       ...    ...      ...   ...       ...     ",
"    a   ...   ...       ...    ...      ...   ...       ...     ",
"    a   ...   ...       ...    ...      ...   ...       ...     ",
"    a   ...   ...             ....      ...  ....      ....     ",
"    a   ...   .....           ...       ...  ....      ....     ",
"    a   ...   .....           ...       ...  ...       ....     ",
"    a   ...   ........        ...       ...  ...       ....     ",
"    a          .........                                        ",
"    a          .........                                        ",
"   aaaaaaaaaaaa...........aaaaaaaaaaaaaaaaaaaaaaaaaaaaaaaaaaaa  ",
"   a             .........                                      ",
"   a              ........                                      ",
"   a   ...          ......   ....      ...  ....       ...      ",
"   a   ...            ....   ....      ...  ....       ...      ",
"   a   ...            ....   ....      ...  ....       ...      ",
"   a   ...             ...   ....     ....  ....       ...      ",
"   a   ...  ...        ...   ....     ....  ....      ....      ",
"   a   ...  ...        ...   ...      ...   ....      ....      ",
"   a   ...  ...       ....   ...      ...   ....      ...       ",
"   a   ...  ....      ....   ...     ....   ...       ...       ",
"   a   ...  ....      ...    ...     ....   ...       ...       ",
"   a   ...   ....    ....    ...    ....    ...      ....       ",
"  a    ...   ...........     ...........    ...      ....       ",
"  a   ....   ...........    ...........    ....      ....       ",
"  a   ....   ...........    ...........    ....      ....       ",
"  a   ...     .........     ..........     ...       ....       ",
"  a   ...      .......      ..........     ...       ....       ",
"  a   ...      ......       .........      ...       ....       ",
"                                                                ",
"                                                                ",
"                                                                ",
"                   XX       XX                                  ",
"         XXX       XX       XX                                  ",
"        XXXX       XX                                           ",
"        XXXX      XX                                            ",
"       XXXX       XX       XX  XXXXXXX   XXX  XXX  XX   XX      ",
"      XX XX       XX       XX  XXXXXXXX  XXX  XXX  XX  XXX      ",
"     XX XXX       XX       XX  XXX  XXX  XXX  XXX   X XXX       ",
"    XXX XX       XXX      XX  XXX   XXX XXX  XXX    XXXX        ",
"   XXX  XX       XXX      XX  XXX  XXX  XXX  XXX     XX         ",
"   XXXXXXXX      XXX      XX  XXX  XXX  XXX  XXX    XXX         ",
"   XXXXXXXX      XXX      XX  XXX  XXX XXX  XXXX   XXXXX        ",
"       XX       XXX      XX  XXX  XXX  XXX  XXX   XXX XX        ",
"       XX       XXXXXXXX XX  XXX  XXX  XXXXXXXX  XXX  XXX       ",
"       XX       XXXXXXXX XX  XXX  XXX   XXXXXXX  XX   XXX       ",
"                                                                ",
"                                                                ",
"                                                                ",
"                                                                ",
"                                                                "};
